<svg xmlns="http://www.w3.org/2000/svg" viewBox="0 -0.5 80 80" shape-rendering="crispEdges">
<metadata>Made with Pixels to Svg https://codepen.io/shshaw/pen/XbxvNj</metadata>
<path stroke="#cfd8dc" d="M0 0h80M0 1h80M0 2h80M0 3h80M0 4h80M0 5h80M0 6h80M0 7h80M0 8h80M0 9h80M0 10h80M0 11h80M0 12h80M0 13h80M0 14h80M0 15h80M0 16h80M0 17h80M0 18h80M0 19h80M0 20h15M47 20h5M60 20h20M0 21h15M47 21h5M60 21h20M0 22h15M47 22h5M60 22h20M0 23h15M47 23h5M60 23h20M0 24h15M47 24h5M60 24h20M0 25h15M47 25h5M60 25h20M0 26h15M47 26h5M60 26h20M0 27h27M35 27h17M60 27h20M0 28h27M35 28h17M60 28h20M0 29h27M35 29h17M60 29h20M0 30h27M35 30h17M60 30h20M0 31h27M35 31h17M60 31h20M0 32h27M35 32h17M60 32h20M0 33h27M35 33h17M60 33h20M0 34h27M35 34h17M60 34h20M0 35h27M35 35h17M60 35h20M0 36h27M35 36h17M60 36h20M0 37h27M35 37h17M60 37h20M0 38h27M35 38h17M60 38h20M0 39h27M35 39h17M60 39h20M0 40h27M35 40h17M60 40h20M0 41h27M35 41h17M60 41h20M0 42h27M35 42h17M60 42h20M0 43h27M35 43h17M60 43h20M0 44h27M35 44h17M60 44h20M0 45h27M35 45h17M60 45h20M0 46h27M35 46h17M60 46h20M0 47h27M35 47h17M60 47h20M0 48h27M35 48h17M60 48h20M0 49h27M35 49h17M60 49h20M0 50h27M35 50h17M60 50h20M0 51h27M35 51h17M60 51h20M0 52h27M35 52h17M60 52h20M0 53h27M35 53h17M60 53h20M0 54h27M35 54h17M60 54h20M0 55h27M35 55h17M60 55h20M0 56h27M35 56h17M60 56h20M0 57h27M35 57h17M60 57h20M0 58h27M35 58h17M60 58h20M0 59h27M35 59h17M60 59h20M0 60h80M0 61h80M0 62h80M0 63h80M0 64h80M0 65h80M0 66h80M0 67h80M0 68h80M0 69h80M0 70h80M0 71h80M0 72h80M0 73h80M0 74h80M0 75h80M0 76h80M0 77h80M0 78h80M0 79h80" />
<path stroke="#78909c" d="M15 20h32M52 20h8M15 21h32M52 21h8M15 22h32M52 22h8M15 23h32M52 23h8M15 24h32M52 24h8M15 25h32M52 25h8M15 26h32M52 26h8M27 27h8M52 27h8M27 28h8M52 28h8M27 29h8M52 29h8M27 30h8M52 30h8M27 31h8M52 31h8M55 32h2M55 33h2M55 34h2M30 35h5M55 35h2M30 36h5M55 36h2M27 40h5M52 40h5M27 41h5M52 41h5M52 42h5M52 43h5M52 44h5M27 45h8M52 45h8M27 46h8M52 46h8M27 47h8M52 47h8M27 48h8M52 48h8M27 49h8M52 49h8M27 50h8M52 50h8M27 51h8M52 51h8M27 52h8M52 52h8M27 53h8M52 53h8M27 54h8M52 54h8M27 55h8M52 55h8M27 56h8M52 56h8M27 57h8M52 57h8M27 58h8M52 58h8M27 59h8M52 59h8" />
<path stroke="#546e7a" d="M27 32h8M52 32h3M57 32h3M27 33h8M52 33h3M57 33h3M27 34h8M52 34h3M57 34h3M27 35h3M52 35h3M57 35h3M27 36h3M52 36h3M57 36h3M27 37h8M52 37h8M27 38h8M52 38h8M27 39h8M52 39h8M32 40h3M57 40h3M32 41h3M57 41h3M27 42h8M57 42h3M27 43h8M57 43h3M27 44h8M57 44h3" />
</svg>